<?xml version="1.0" standalone="no"?>
<!DOCTYPE svg PUBLIC "-//W3C//DTD SVG 20010904//EN"
 "http://www.w3.org/TR/2001/REC-SVG-20010904/DTD/svg10.dtd">
<svg version="1.0" xmlns="http://www.w3.org/2000/svg"
 width="300.000000pt" height="305.000000pt" viewBox="0 0 300.000000 305.000000"
 preserveAspectRatio="xMidYMid meet">
<metadata>
Created by potrace 1.10, written by Peter Selinger 2001-2011
</metadata>
<rect width="100%" height="100%" fill="#3e3e3e" />
<g transform="translate(0.000000,305.000000) scale(0.050000,-0.050000)"
fill="#ffffff" stroke="none">
<path d="M1930 5874 c-365 -196 -699 -685 -700 -1027 l0 -163 -68 -24 c-171
-62 -428 -415 -511 -702 -49 -169 -159 -258 -320 -258 -154 0 -109 -210 63
-292 l77 -37 -65 -98 c-261 -387 -185 -951 178 -1313 l123 -123 -34 -190 c-32
-182 -84 -318 -148 -391 -103 -118 262 -293 681 -327 l169 -14 23 -75 c93
-312 675 -517 1496 -526 460 -5 583 19 700 136 l68 68 244 -4 c406 -5 763 151
885 387 20 39 53 60 121 77 428 108 753 326 636 427 -107 93 -116 135 -117
535 -1 339 -5 376 -43 441 l-42 71 107 177 c278 460 249 1013 -72 1375 l-73
82 37 75 c146 294 19 1057 -206 1247 -216 181 -704 76 -1041 -224 l-97 -87
-84 67 c-157 124 -217 195 -217 258 0 156 -535 138 -765 -26 -68 -48 -59 -54
-122 89 -81 183 -192 335 -291 398 -139 88 -420 84 -592 -9z m298 -99 c133
-139 278 -473 309 -712 12 -98 19 -112 54 -106 21 4 83 12 136 17 l97 10 -12
83 c-32 210 433 474 499 283 26 -77 53 -106 226 -245 61 -50 80 -78 77 -119
-3 -45 6 -55 62 -67 37 -8 87 -33 112 -57 63 -60 78 -54 164 58 167 219 557
468 715 456 279 -21 449 -958 230 -1259 -20 -28 -9 -50 70 -138 327 -363 360
-855 87 -1299 -159 -259 -150 -231 -94 -290 49 -52 50 -61 60 -457 11 -427 25
-492 120 -559 34 -23 36 -32 14 -51 -55 -45 -369 -183 -540 -237 -160 -50
-181 -62 -219 -130 -146 -261 -623 -419 -982 -326 -134 35 -144 32 -160 -48
-27 -139 -345 -213 -660 -153 -447 84 -766 269 -805 468 -18 86 -9 84 -354
103 -337 19 -580 62 -703 124 -134 67 -133 66 -68 193 41 78 72 187 97 334
l37 218 -139 138 c-103 103 -160 182 -223 309 l-85 171 0 244 0 244 80 157
c54 106 101 171 144 198 86 53 88 110 4 110 -78 0 -190 52 -228 106 -35 51
-22 74 42 74 143 0 286 135 347 329 106 334 343 624 542 664 60 12 62 15 46
85 -70 303 148 734 515 1016 215 166 277 175 386 61z m224 53 c84 -40 185
-175 279 -373 l71 -151 -41 -77 c-22 -42 -41 -97 -41 -122 0 -85 -93 -60 -109
30 -36 203 -144 462 -263 630 l-68 95 52 0 c29 0 83 -15 120 -32z m1123 -400
c25 -5 45 -23 45 -39 0 -65 64 -148 190 -248 l132 -103 -46 -55 -45 -55 -75
41 c-41 23 -79 61 -85 85 -6 24 -49 74 -94 110 -298 237 -305 323 -22 264z
m1485 -65 c215 -157 341 -932 194 -1192 l-55 -98 78 -82 c176 -182 283 -451
283 -712 0 -263 -39 -368 -292 -794 -38 -64 -38 -64 5 -95 66 -45 88 -190 74
-475 -15 -292 10 -427 96 -525 l58 -66 -88 -49 c-117 -66 -396 -183 -540 -227
-84 -27 -124 -51 -143 -88 -65 -126 -259 -263 -460 -325 -216 -67 -257 -56
-90 23 103 49 300 225 300 268 0 14 79 51 175 84 484 164 673 310 550 425 -89
83 -105 174 -100 546 5 312 3 333 -41 407 l-46 78 69 103 c321 484 301 1127
-46 1460 l-57 55 43 93 c123 266 24 920 -181 1201 l-35 49 99 -14 c55 -7 123
-30 150 -50z m-3439 -4455 c60 -10 75 -24 107 -100 42 -102 152 -200 324 -288
133 -69 75 -63 -130 13 -213 79 -372 193 -434 311 -44 84 -29 91 133 64z
m1871 -379 c106 -22 -7 -83 -257 -138 -53 -11 -52 -8 30 76 86 89 91 91 227
62z"/>
<path d="M1846 5355 c-66 -72 -108 -172 -112 -262 -6 -120 44 -110 81 17 63
215 130 256 174 106 49 -165 44 -191 -49 -216 -91 -25 -220 -142 -220 -201 0
-55 53 -49 93 12 42 65 133 112 225 116 l72 3 -5 100 c-16 296 -141 454 -259
325z"/>
<path d="M4546 4575 c-55 -58 -226 -320 -226 -346 0 -5 22 -18 49 -29 38 -14
50 -35 55 -94 4 -51 16 -76 36 -76 44 0 51 140 10 202 -33 51 92 279 165 303
36 12 33 -158 -5 -248 -40 -95 -38 -127 8 -127 86 0 141 336 71 436 -43 61
-91 55 -163 -21z"/>
<path d="M1984 3669 c-24 -18 -57 -63 -73 -100 -24 -57 -39 -69 -90 -69 -84 0
-79 -51 8 -80 38 -12 86 -46 107 -74 92 -126 294 2 267 169 -27 167 -113 228
-219 154z m92 -106 c-4 -18 -22 -36 -41 -39 -43 -8 -71 54 -35 76 38 23 83 1
76 -37z"/>
<path d="M2400 3498 c-179 -81 -219 -158 -45 -86 207 85 370 56 538 -98 123
-112 136 -100 41 38 -123 178 -335 237 -534 146z"/>
<path d="M3308 3525 c-13 -8 -42 -54 -66 -101 -25 -48 -65 -94 -93 -104 -65
-25 -68 -20 81 -119 116 -76 140 -85 214 -75 139 19 259 142 153 157 -35 6
-50 28 -69 103 -36 142 -127 200 -220 139z m85 -76 c17 -44 -25 -85 -56 -54
-25 25 -9 85 23 85 12 0 27 -14 33 -31z"/>
<path d="M1376 3360 c-360 -238 -460 -688 -232 -1045 64 -102 79 -110 114 -68
17 21 13 40 -19 79 -241 307 -152 745 197 969 102 65 124 109 62 121 -16 3
-71 -22 -122 -56z"/>
<path d="M2120 3119 c-238 -101 -185 -475 89 -620 110 -59 110 -58 16 -162
-280 -311 -684 -115 -657 318 11 193 -21 258 -68 134 -107 -281 98 -669 354
-669 l56 0 2 -195 c4 -385 186 -643 455 -645 183 -1 272 97 384 420 99 285 77
263 271 268 385 9 665 282 606 591 -30 153 -76 121 -88 -61 -33 -505 -725
-625 -1038 -180 -68 96 -78 142 -33 142 308 0 527 343 336 525 -130 124 -524
201 -685 134z m416 -187 c44 -16 86 -24 92 -17 11 10 15 -11 10 -48 -1 -7 10
-20 25 -29 74 -46 -131 -242 -219 -209 -14 6 -22 3 -16 -5 5 -9 -9 -28 -32
-42 -36 -22 -40 -22 -30 5 8 21 3 28 -17 20 -18 -7 -29 1 -29 20 0 19 -11 27
-28 21 -32 -12 -79 57 -56 83 8 8 3 9 -10 2 -44 -26 -81 122 -46 188 27 49
230 55 356 11z m-229 -737 c-38 -183 -36 -535 3 -535 24 0 30 34 31 185 1 102
12 253 25 335 l24 150 66 -94 c73 -106 167 -185 258 -217 l61 -21 -45 -114
c-24 -63 -68 -178 -98 -257 -105 -277 -277 -347 -460 -186 -165 145 -267 679
-130 679 59 0 139 47 217 128 38 40 70 72 72 72 1 0 -10 -56 -24 -125z"/>
<path d="M3988 2996 c-9 -14 1 -32 23 -45 270 -148 297 -609 48 -819 -67 -56
-78 -112 -21 -112 165 0 327 454 253 708 -52 181 -250 355 -303 268z"/>
<path d="M3862 1797 c-83 -100 -239 -176 -362 -177 -81 -1 -95 -8 -145 -78
-357 -505 -1385 -434 -1664 115 -54 107 -83 126 -105 70 -34 -90 203 -384 390
-483 417 -223 1067 -139 1385 179 72 72 115 97 196 114 209 45 432 200 419
290 -10 65 -42 57 -114 -30z"/>
</g>
</svg>
